; NON-PLATED HOLES START AT T1
; THROUGH (PLATED) HOLES START AT T100
M48
INCH
T100C0.038000
T101C0.040000
T102C0.030000
T103C0.035000
%
T100
X012591Y005804
X002591Y006804
X013591Y004804
X014591Y004804
X015591Y004804
X013591Y005804
X014591Y005804
X001591Y002804
X015591Y005804
X001591Y012804
X012591Y011804
X002591Y002804
X002591Y012804
X012591Y012804
X001591Y004804
X002591Y004804
X012591Y004804
X001591Y006804
T101
X004591Y004804
X010591Y007804
X010591Y001804
X010591Y011804
X004591Y005804
X009441Y008354
X010591Y008804
X010591Y002804
X006091Y013804
X010591Y012804
X007091Y013804
X004591Y006804
X009441Y009354
X008091Y013804
X010591Y009804
X004591Y010804
X010591Y003804
X010091Y013804
X004591Y007804
X004591Y001804
X004591Y011804
X010591Y004804
X009091Y013804
X004591Y008804
X004591Y002804
X004591Y012804
X010591Y005804
X004591Y009804
X004591Y003804
X010591Y006804
X010591Y010804
X005091Y013804
T102
X012593Y008804
X011591Y008804
T103
X001591Y010804
X011591Y000804
X001591Y007804
X002591Y007804
X002591Y001804
X000591Y003804
X011591Y007804
X001591Y008804
X003591Y010804
X001591Y009804
X002591Y003804
X000591Y005804
X003591Y008804
X012591Y009804
X006591Y000804
X014591Y011804
X015591Y011804
X002591Y005804
X013591Y009804
X000591Y001804
X014591Y009804
X006591Y002804
T00
M30
