G04 MADE WITH FRITZING*
G04 WWW.FRITZING.ORG*
G04 SINGLE SIDED*
G04 HOLES NOT PLATED*
G04 CONTOUR ON CENTER OF CONTOUR VECTOR*
%ASAXBY*%
%FSLAX23Y23*%
%MOIN*%
%OFA0B0*%
%SFA1.0B1.0*%
%ADD10C,0.075000*%
%ADD11C,0.078000*%
%ADD12C,0.074000*%
%ADD13C,0.070000*%
%ADD14R,0.078000X0.078000*%
%ADD15R,0.075000X0.075000*%
%ADD16C,0.024000*%
%ADD17C,0.012000*%
%LNCOPPER0*%
G90*
G70*
G54D10*
X159Y780D03*
X259Y780D03*
G54D11*
X259Y1280D03*
X159Y1280D03*
X259Y480D03*
X159Y480D03*
X259Y280D03*
X159Y280D03*
X259Y680D03*
X159Y680D03*
G54D10*
X59Y180D03*
X259Y180D03*
X59Y380D03*
X259Y380D03*
X59Y580D03*
X259Y580D03*
G54D11*
X1559Y580D03*
X1459Y580D03*
X1359Y580D03*
X1259Y580D03*
X1559Y580D03*
X1459Y580D03*
X1359Y580D03*
X1259Y580D03*
X1259Y480D03*
X1359Y480D03*
X1459Y480D03*
X1559Y480D03*
X1259Y1180D03*
X1259Y1280D03*
G54D12*
X1009Y1380D03*
X909Y1380D03*
X809Y1380D03*
X709Y1380D03*
X609Y1380D03*
X509Y1380D03*
X1059Y1280D03*
X1059Y1180D03*
X1059Y1080D03*
X1059Y980D03*
X1059Y880D03*
X944Y935D03*
X944Y835D03*
X1059Y780D03*
X1059Y680D03*
X1059Y580D03*
X1059Y480D03*
X1059Y380D03*
X1059Y280D03*
X1059Y180D03*
X459Y180D03*
X459Y280D03*
X459Y380D03*
X459Y480D03*
X459Y580D03*
X459Y680D03*
X459Y780D03*
X459Y880D03*
X459Y980D03*
X459Y1080D03*
X459Y1180D03*
X459Y1280D03*
G54D10*
X1159Y780D03*
X1159Y80D03*
X159Y1080D03*
X159Y980D03*
X159Y880D03*
X659Y80D03*
X659Y280D03*
X1259Y980D03*
X1359Y980D03*
X1459Y980D03*
G54D13*
X1159Y880D03*
X1259Y880D03*
G54D10*
X1459Y1180D03*
X1559Y1180D03*
X359Y1080D03*
X359Y880D03*
G54D14*
X1259Y1180D03*
G54D15*
X1459Y1180D03*
G54D16*
X1090Y1180D02*
X1229Y1180D01*
D02*
X1090Y1280D02*
X1229Y1280D01*
G54D17*
D02*
X259Y250D02*
X259Y209D01*
D02*
X259Y450D02*
X259Y409D01*
D02*
X259Y650D02*
X259Y609D01*
D02*
X1159Y180D02*
X1090Y180D01*
D02*
X1442Y463D02*
X1159Y180D01*
D02*
X1159Y280D02*
X1342Y463D01*
D02*
X1090Y280D02*
X1159Y280D01*
D02*
X1242Y563D02*
X1077Y399D01*
D02*
X1159Y680D02*
X1259Y680D01*
D02*
X1259Y680D02*
X1342Y598D01*
D02*
X1081Y502D02*
X1159Y580D01*
D02*
X1159Y580D02*
X1159Y680D01*
D02*
X289Y680D02*
X428Y680D01*
D02*
X289Y480D02*
X359Y480D01*
D02*
X359Y480D02*
X437Y558D01*
D02*
X280Y302D02*
X437Y458D01*
G54D16*
D02*
X159Y511D02*
X159Y650D01*
D02*
X159Y450D02*
X159Y311D01*
G54D17*
D02*
X1259Y780D02*
X1188Y780D01*
D02*
X1442Y598D02*
X1259Y780D01*
G54D16*
D02*
X59Y352D02*
X59Y209D01*
D02*
X59Y409D02*
X59Y552D01*
D02*
X428Y780D02*
X288Y780D01*
G54D17*
D02*
X959Y180D02*
X490Y180D01*
D02*
X1131Y80D02*
X1059Y80D01*
D02*
X1059Y80D02*
X959Y180D01*
G54D16*
D02*
X759Y1080D02*
X959Y1080D01*
D02*
X659Y980D02*
X759Y1080D01*
D02*
X959Y1080D02*
X1037Y1002D01*
D02*
X659Y309D02*
X659Y980D01*
D02*
X79Y160D02*
X159Y80D01*
D02*
X159Y80D02*
X631Y80D01*
D02*
X159Y752D02*
X159Y711D01*
D02*
X759Y1280D02*
X559Y1480D01*
D02*
X559Y1480D02*
X359Y1480D01*
D02*
X1028Y1280D02*
X759Y1280D01*
D02*
X359Y1480D02*
X259Y1380D01*
D02*
X259Y1380D02*
X259Y1311D01*
D02*
X1359Y1080D02*
X1359Y1009D01*
D02*
X1280Y1159D02*
X1359Y1080D01*
D02*
X1081Y958D02*
X1141Y899D01*
D02*
X1339Y960D02*
X1278Y899D01*
D02*
X1289Y1180D02*
X1431Y1180D01*
D02*
X1559Y1080D02*
X1559Y1152D01*
D02*
X1479Y1001D02*
X1559Y1080D01*
D02*
X1231Y980D02*
X1090Y980D01*
D02*
X1359Y780D02*
X1359Y952D01*
D02*
X1538Y602D02*
X1359Y780D01*
D02*
X159Y1109D02*
X159Y1250D01*
D02*
X159Y809D02*
X159Y880D01*
D02*
X1459Y880D02*
X1459Y952D01*
D02*
X1659Y680D02*
X1459Y880D01*
D02*
X1659Y580D02*
X1659Y680D01*
D02*
X1580Y502D02*
X1659Y580D01*
D02*
X179Y901D02*
X259Y980D01*
D02*
X259Y980D02*
X428Y980D01*
D02*
X379Y860D02*
X437Y802D01*
D02*
X179Y1001D02*
X259Y1080D01*
D02*
X259Y1080D02*
X331Y1080D01*
G04 End of Copper0*
M02*