G04 MADE WITH FRITZING*
G04 WWW.FRITZING.ORG*
G04 SINGLE SIDED*
G04 HOLES NOT PLATED*
G04 CONTOUR ON CENTER OF CONTOUR VECTOR*
%ASAXBY*%
%FSLAX23Y23*%
%MOIN*%
%OFA0B0*%
%SFA1.0B1.0*%
%ADD10C,0.085000*%
%ADD11C,0.088000*%
%ADD12C,0.084000*%
%ADD13C,0.080000*%
%ADD14R,0.088000X0.088000*%
%ADD15R,0.085000X0.085000*%
%LNMASK0*%
G90*
G70*
G54D10*
X159Y780D03*
X259Y780D03*
G54D11*
X259Y1280D03*
X159Y1280D03*
X259Y480D03*
X159Y480D03*
X259Y280D03*
X159Y280D03*
X259Y680D03*
X159Y680D03*
G54D10*
X59Y180D03*
X259Y180D03*
X59Y380D03*
X259Y380D03*
X59Y580D03*
X259Y580D03*
G54D11*
X1559Y580D03*
X1459Y580D03*
X1359Y580D03*
X1259Y580D03*
X1559Y580D03*
X1459Y580D03*
X1359Y580D03*
X1259Y580D03*
X1259Y480D03*
X1359Y480D03*
X1459Y480D03*
X1559Y480D03*
X1259Y1180D03*
X1259Y1280D03*
G54D12*
X1009Y1380D03*
X909Y1380D03*
X809Y1380D03*
X709Y1380D03*
X609Y1380D03*
X509Y1380D03*
X1059Y1280D03*
X1059Y1180D03*
X1059Y1080D03*
X1059Y980D03*
X1059Y880D03*
X944Y935D03*
X944Y835D03*
X1059Y780D03*
X1059Y680D03*
X1059Y580D03*
X1059Y480D03*
X1059Y380D03*
X1059Y280D03*
X1059Y180D03*
X459Y180D03*
X459Y280D03*
X459Y380D03*
X459Y480D03*
X459Y580D03*
X459Y680D03*
X459Y780D03*
X459Y880D03*
X459Y980D03*
X459Y1080D03*
X459Y1180D03*
X459Y1280D03*
G54D10*
X1159Y780D03*
X1159Y80D03*
X159Y1080D03*
X159Y980D03*
X159Y880D03*
X659Y80D03*
X659Y280D03*
X1259Y980D03*
X1359Y980D03*
X1459Y980D03*
G54D13*
X1159Y880D03*
X1259Y880D03*
G54D10*
X1459Y1180D03*
X1559Y1180D03*
X359Y1080D03*
X359Y880D03*
G54D14*
X1259Y1180D03*
G54D15*
X1459Y1180D03*
G04 End of Mask0*
M02*